<svg width="109" height="15" viewBox="0 0 109 15" fill="none" xmlns="http://www.w3.org/2000/svg">
<path d="M13.9855 4.352H10.8895V2.948H9.73751V11.048H10.9975V14H3.43751V11.048H4.69751V2.948H3.54551V4.352H0.44951V-0.00400102H13.9855V4.352ZM24.7792 11.048V14H20.0272V12.776C19.7632 13.16 19.3912 13.502 18.9112 13.802C18.4432 14.102 17.8672 14.252 17.1832 14.252C16.2832 14.252 15.5752 14.012 15.0592 13.532C14.5432 13.052 14.2852 12.374 14.2852 11.498C14.2852 9.23 16.2112 8.066 20.0632 8.006C20.0272 7.598 19.8712 7.322 19.5952 7.178C19.3192 7.022 18.8512 6.944 18.1912 6.944C17.6512 6.944 17.0692 7.004 16.4452 7.124C15.8332 7.232 15.2692 7.382 14.7532 7.574V4.262C15.3892 4.106 16.0792 3.98 16.8232 3.884C17.5672 3.788 18.2932 3.74 19.0012 3.74C20.7892 3.74 22.0672 4.064 22.8352 4.712C23.6032 5.36 23.9872 6.362 23.9872 7.718V11.048H24.7792ZM20.0272 9.788C19.4872 9.788 19.0672 9.86 18.7672 10.004C18.4792 10.148 18.3352 10.388 18.3352 10.724C18.3352 10.928 18.3952 11.096 18.5152 11.228C18.6472 11.348 18.8272 11.408 19.0552 11.408C19.3672 11.408 19.6072 11.276 19.7752 11.012C19.9432 10.748 20.0272 10.376 20.0272 9.896V9.788ZM25.3594 14.018V11.048H26.1514V2.948H25.3594V-0.00400102H30.2914V11.048H31.0834V14.018H25.3594ZM42.5064 11.048H43.2804V14H38.8704L37.0164 10.544H36.5844V14H31.6524V11.048H32.4444V2.948H31.6524V-0.00400102H36.5844V7.304H37.0164L39.2484 3.992H43.0464V6.944H42.3084L40.7784 8.654L42.5064 11.048ZM53.6941 14.252C52.4221 14.252 51.4621 13.946 50.8141 13.334C50.1781 12.71 49.8601 11.666 49.8601 10.202V6.944H49.0681V3.992C49.5241 3.992 49.8661 3.878 50.0941 3.65C50.3221 3.41 50.4361 3.086 50.4361 2.678V1.868H54.2521V3.992H56.6821V6.944H54.2521V9.896C54.2521 10.292 54.3361 10.586 54.5041 10.778C54.6841 10.958 54.9481 11.048 55.2961 11.048C55.7521 11.048 56.2501 10.994 56.7901 10.886V13.712C56.4541 13.844 55.9981 13.964 55.4221 14.072C54.8581 14.192 54.2821 14.252 53.6941 14.252ZM62.7332 14.252C61.0292 14.252 59.6972 13.808 58.7372 12.92C57.7772 12.02 57.2972 10.712 57.2972 8.996C57.2972 7.28 57.7772 5.978 58.7372 5.09C59.6972 4.19 61.0292 3.74 62.7332 3.74C64.4612 3.74 65.7992 4.196 66.7472 5.108C67.6952 6.008 68.1692 7.304 68.1692 8.996C68.1692 10.712 67.6892 12.02 66.7292 12.92C65.7692 13.808 64.4372 14.252 62.7332 14.252ZM62.7332 11.048C63.0812 11.048 63.3392 10.958 63.5072 10.778C63.6872 10.586 63.7772 10.292 63.7772 9.896V8.096C63.7772 7.7 63.6872 7.412 63.5072 7.232C63.3392 7.04 63.0812 6.944 62.7332 6.944C62.3852 6.944 62.1212 7.04 61.9412 7.232C61.7732 7.412 61.6892 7.7 61.6892 8.096V9.896C61.6892 10.292 61.7732 10.586 61.9412 10.778C62.1212 10.958 62.3852 11.048 62.7332 11.048ZM92.3187 11.048V14H86.6307V11.048H87.3867V8.096C87.3867 7.7 87.3027 7.412 87.1347 7.232C86.9667 7.04 86.7147 6.944 86.3787 6.944C85.6587 6.944 85.2987 7.328 85.2987 8.096V11.048H86.0547V14H80.4027V11.048H81.1587V8.096C81.1587 7.7 81.0747 7.412 80.9067 7.232C80.7387 7.04 80.4867 6.944 80.1507 6.944C79.4307 6.944 79.0707 7.328 79.0707 8.096V11.048H79.8267V14H74.1387V11.048H74.9307V6.944H74.1387V3.992H79.0707V5.396C79.9347 4.292 81.0147 3.74 82.3107 3.74C83.0427 3.74 83.6367 3.914 84.0927 4.262C84.5607 4.598 84.8907 5.078 85.0827 5.702C85.5147 5.078 86.0067 4.598 86.5587 4.262C87.1227 3.926 87.7827 3.758 88.5387 3.758C89.5347 3.758 90.2787 4.07 90.7707 4.694C91.2747 5.318 91.5267 6.176 91.5267 7.268V11.048H92.3187ZM98.2586 14.252C96.5546 14.252 95.2226 13.808 94.2626 12.92C93.3026 12.02 92.8226 10.712 92.8226 8.996C92.8226 7.28 93.3026 5.978 94.2626 5.09C95.2226 4.19 96.5546 3.74 98.2586 3.74C99.9506 3.74 101.169 4.184 101.913 5.072C102.669 5.948 103.047 7.04 103.047 8.348V9.644H97.2146V9.752C97.2146 10.196 97.3466 10.526 97.6106 10.742C97.8746 10.946 98.3126 11.048 98.9246 11.048C99.6566 11.048 100.353 10.994 101.013 10.886C101.673 10.778 102.249 10.64 102.741 10.472V13.352C102.321 13.58 101.703 13.79 100.887 13.982C100.083 14.162 99.2066 14.252 98.2586 14.252ZM99.3026 7.664V7.448C99.3026 7.04 99.2126 6.746 99.0326 6.566C98.8646 6.386 98.6066 6.296 98.2586 6.296C97.9106 6.296 97.6466 6.392 97.4666 6.584C97.2986 6.764 97.2146 7.052 97.2146 7.448V7.664H99.3026ZM104.446 10.058L103.618 0.895999V-0.00400102H109V0.895999L108.154 10.058H104.446ZM104.266 14V11.048H108.334V14H104.266Z" fill="white"/>
</svg>
